<svg width="24" height="24" viewBox="0 0 24 24" fill="none" xmlns="http://www.w3.org/2000/svg">
<path d="M11.7723 0.102857L9.70511 2.12572L6.93723 1.16571C6.76205 1.09714 6.58686 1.2 6.51679 1.37143L5.53577 4.08L2.62775 4.38857C2.45257 4.42286 2.31241 4.56 2.34745 4.73143L2.66278 7.57714L0.175187 9.08571C0.0350418 9.18857 -0.0350365 9.36 0.0700725 9.53143L1.61169 11.9657L0.0700725 14.4C-0.0350365 14.5371 0.0350418 14.7429 0.175187 14.8457L2.66278 16.3543L2.34745 19.2C2.31241 19.3714 2.45257 19.5429 2.62775 19.5429L5.53577 19.8514L6.51679 22.56C6.58686 22.7314 6.76205 22.8 6.93723 22.7657L9.70511 21.8057L11.7723 23.8286C11.9124 23.9657 12.0876 23.9657 12.2277 23.8286L14.2949 21.8057L17.0628 22.7657C17.238 22.8343 17.4131 22.7314 17.4832 22.56L18.4642 19.8514L21.3723 19.5429C21.5475 19.5086 21.6876 19.3714 21.6526 19.2L21.3372 16.3543L23.8248 14.8457C23.965 14.7429 24.035 14.5714 23.9299 14.4L22.3883 11.9657L23.9299 9.53143C24.035 9.39428 23.965 9.18857 23.8248 9.08571L21.3372 7.57714L21.6526 4.73143C21.6876 4.56 21.5475 4.38857 21.3723 4.38857L18.4642 4.08L17.4832 1.37143C17.4131 1.2 17.238 1.13143 17.0628 1.16571L14.2949 2.12572L12.2277 0.102857C12.0876 -0.0342857 11.9124 -0.0342857 11.7723 0.102857ZM12.0175 0.754287L13.6292 2.33143L12.7883 2.64C12.7182 2.67428 12.6482 2.70857 12.6131 2.81143L12.0175 4.01143L11.4219 2.81143C11.3869 2.74286 11.3168 2.67428 11.2467 2.64L10.4058 2.33143L12.0175 0.754287ZM7.04234 1.85143L9.2146 2.60571L8.58394 3.22286C8.51386 3.29143 8.47883 3.36 8.47883 3.42857V4.76571L7.42774 3.94286C7.35766 3.87428 7.28758 3.87429 7.18248 3.87429L6.27153 3.97714L7.04234 1.85143ZM16.9577 1.85143L17.7285 3.97714L16.8175 3.87429C16.7475 3.87429 16.6423 3.87428 16.5723 3.94286L15.5212 4.76571V3.42857C15.5212 3.36 15.4861 3.25714 15.4161 3.22286L14.7854 2.60571L16.9577 1.85143ZM9.8803 2.84571L10.8964 3.18857L11.6672 4.73143L10.7562 6.58286L9.14453 5.31428V3.6L9.8803 2.84571ZM14.1197 2.84571L14.8905 3.6V5.31428L13.2788 6.58286L12.3679 4.73143L13.1387 3.18857L14.1197 2.84571ZM7.11241 4.52572L8.47883 5.58857V7.61143L6.44672 7.16571L5.67591 5.62286L6.02628 4.62857L7.11241 4.52572ZM16.8876 4.52572L17.9737 4.62857L18.3241 5.62286L17.5533 7.16571L15.5212 7.61143V5.58857L16.8876 4.52572ZM5.32556 4.73143L5.04527 5.55428C5.01023 5.62286 5.01023 5.72571 5.04527 5.79429L5.64088 6.99429L4.3095 6.68571C4.23943 6.65143 4.13431 6.68571 4.06424 6.72L3.29344 7.2L3.04818 4.97143L5.32556 4.73143ZM18.6745 4.73143L20.9518 4.97143L20.7066 7.2L19.9358 6.72C19.8657 6.68571 19.7606 6.65143 19.6905 6.68571L18.3591 6.99429L18.9547 5.79429C18.9898 5.72571 18.9898 5.62286 18.9547 5.55428L18.6745 4.73143ZM12.0175 5.45143L12.7533 6.96L12.0175 7.54286L11.2818 6.96L12.0175 5.45143ZM9.10949 6.06857L10.4409 7.13143L10.0204 7.98857L9.07446 7.78286L9.10949 6.06857ZM14.8905 6.06857V7.74857L13.9445 7.95429L13.5241 7.09714L14.8905 6.06857ZM4.3095 7.33714L5.99124 7.71428L6.90219 9.56571L4.87009 10.0114L3.50366 8.94857L3.39855 7.88571L4.3095 7.33714ZM19.6905 7.33714L20.6015 7.88571L20.4964 8.94857L19.1299 10.0114L17.0978 9.56571L18.0088 7.71428L19.6905 7.33714ZM10.9664 7.54286L11.492 7.95429L11.1416 8.22857L10.6861 8.12571L10.9664 7.54286ZM13.0336 7.54286L13.3139 8.12571L12.8584 8.22857L12.508 7.95429L13.0336 7.54286ZM6.79708 7.88571L8.47883 8.26286V9.18857L7.53285 9.39429L6.79708 7.88571ZM17.2029 7.88571L16.4672 9.39429L15.5212 9.18857V8.26286L17.2029 7.88571ZM2.80292 8.26286L2.90804 9.15429C2.90804 9.22286 2.94308 9.32571 3.01315 9.36L4.06424 10.1829L2.73285 10.4914C2.66278 10.5257 2.59271 10.56 2.52263 10.6286L2.03213 11.3829L0.805852 9.49714L2.80292 8.26286ZM21.1971 8.26286L23.1241 9.46286L21.8978 11.3486L21.4073 10.5943C21.3723 10.5257 21.3022 10.4571 21.1971 10.4571L19.8657 10.1486L20.9168 9.32571C20.9869 9.25714 21.0219 9.18857 21.0219 9.12L21.1971 8.26286ZM9.10949 8.4L9.74015 8.53714L9.52993 8.94857L9.07446 9.05143L9.10949 8.4ZM14.8905 8.4V9.05143L14.435 8.94857L14.2248 8.53714L14.8905 8.4ZM12.0175 9.05143L12.6482 9.18857L13.2788 9.32571L13.8044 9.73714L14.3299 10.1486L14.6102 10.7314L14.8905 11.3143V11.9657V12.6171L14.6102 13.2L14.3299 13.7829L13.8044 14.1943L13.2788 14.6057L12.6482 14.7429L12.0175 14.88L11.3869 14.7429L10.7562 14.6057L10.2307 14.1943L9.70511 13.7829L9.38979 13.1657L9.10949 12.5829V11.9314V11.28L9.38979 10.6971L9.67008 10.1143L10.1956 9.70286L10.7212 9.29143L11.3518 9.15429L12.0175 9.05143ZM8.47883 9.84V10.2857L8.12847 10.56L7.84818 9.97714L8.47883 9.84ZM15.5212 9.84L16.1518 9.97714L15.8715 10.56L15.5212 10.2857V9.84ZM7.18248 10.1143L7.60292 10.9714L6.86715 11.5543L5.53577 10.4914L7.18248 10.1143ZM16.8175 10.1143L18.4993 10.4914L17.1679 11.5543L16.4321 10.9714L16.8175 10.1143ZM4.72994 10.6971L6.3416 11.9657L4.72994 13.2343L3.04818 12.8571L2.4876 11.9657L3.04818 11.0743L4.72994 10.6971ZM19.2701 10.6971L20.9518 11.0743L21.5124 11.9657L20.9518 12.8571L19.2701 13.2343L17.6584 11.9657L19.2701 10.6971ZM7.88321 11.5543L8.09343 11.9657L7.88321 12.3771L7.35766 11.9657L7.88321 11.5543ZM16.1168 11.5543L16.6423 11.9657L16.1168 12.3771L15.9066 11.9657L16.1168 11.5543ZM6.86715 12.3429L7.60292 12.9257L7.18248 13.7829L5.50073 13.4057L6.86715 12.3429ZM17.1329 12.3429L18.4642 13.4057L16.7825 13.7829L16.362 12.9257L17.1329 12.3429ZM2.06717 12.5486L2.55768 13.3029C2.59271 13.3714 2.66279 13.44 2.76789 13.44L4.09928 13.7486L3.04818 14.5714C2.97811 14.64 2.94308 14.7086 2.94308 14.7771L2.83797 15.6686L0.910955 14.4686L2.06717 12.5486ZM21.9329 12.5486L23.1591 14.4343L21.2321 15.6343L21.127 14.7429C21.127 14.6743 21.092 14.5714 21.0219 14.5371L19.9708 13.7143L21.3022 13.4057C21.3723 13.3714 21.4423 13.3371 21.5124 13.2686L21.9329 12.5486ZM8.12847 13.3371L8.47883 13.6114V14.0571L7.84818 13.92L8.12847 13.3371ZM15.8715 13.3371L16.1518 13.92L15.5212 14.0571V13.6114L15.8715 13.3371ZM4.87009 13.8857L6.90219 14.3314L5.99124 16.1828L4.3095 16.56L3.39855 16.0114L3.50366 14.9486L4.87009 13.8857ZM19.1299 13.8857L20.4964 14.9486L20.6015 16.0114L19.6905 16.56L18.0088 16.1828L17.0978 14.3314L19.1299 13.8857ZM7.53285 14.5029L8.47883 14.7086V15.6343L6.79708 16.0114L7.53285 14.5029ZM16.4672 14.5029L17.2029 16.0114L15.5212 15.6343V14.7086L16.4672 14.5029ZM9.10949 14.8457L9.56496 14.9486L9.77519 15.36L9.14453 15.4971L9.10949 14.8457ZM14.8905 14.8457V15.4971L14.2598 15.36L14.4701 14.9486L14.8905 14.8457ZM11.1416 15.7028L11.492 15.9771L10.9664 16.3886L10.6861 15.8057L11.1416 15.7028ZM12.8584 15.7028L13.3139 15.8057L13.0336 16.3886L12.508 15.9771L12.8584 15.7028ZM10.0555 15.9428L10.4759 16.8L9.14453 17.8628V16.1828L10.0555 15.9428ZM13.9445 15.9428L14.8905 16.1486V17.8286L13.5591 16.7657L13.9445 15.9428ZM8.47883 16.2857V18.3086L7.11241 19.3714L6.02628 19.2686L5.67591 18.2743L6.44672 16.7314L8.47883 16.2857ZM15.5212 16.2857L17.5533 16.7314L18.3241 18.2743L17.9737 19.2686L16.8876 19.3714L15.5212 18.3086V16.2857ZM12.0175 16.3543L12.7533 16.9371L12.0175 18.4457L11.2818 16.9371L12.0175 16.3543ZM3.32847 16.6971L4.09928 17.1771C4.16936 17.2114 4.27447 17.2457 4.34454 17.2114L5.67591 16.9028L5.0803 18.1029C5.04526 18.1714 5.04526 18.2743 5.0803 18.3428L5.39563 19.1657L3.11826 18.9257L3.32847 16.6971ZM20.6715 16.6971L20.9168 18.9257L18.6394 19.1657L18.9547 18.3428C18.9898 18.2743 18.9898 18.1714 18.9547 18.1029L18.3591 16.9028L19.6905 17.2114C19.7606 17.2457 19.8657 17.2114 19.9358 17.1771L20.6715 16.6971ZM10.7562 17.3486L11.6672 19.2L10.8964 20.7429L9.8803 21.0857L9.10949 20.3314V18.6171L10.7562 17.3486ZM13.2438 17.3486L14.8555 18.6171V20.3314L14.0847 21.0857L13.0686 20.7429L12.2978 19.2L13.2438 17.3486ZM8.47883 19.1314V20.4686C8.47883 20.5371 8.51386 20.64 8.58394 20.6743L9.2146 21.2914L7.04234 22.0457L6.27153 19.92L7.18248 20.0229C7.25255 20.0229 7.35766 20.0229 7.42774 19.9543L8.47883 19.1314ZM15.5212 19.1314L16.5723 19.9543C16.6423 20.0229 16.7124 20.0229 16.8175 20.0229L17.7285 19.92L16.9577 22.0457L14.7854 21.2914L15.4161 20.6743C15.4861 20.6057 15.5212 20.5371 15.5212 20.4686V19.1314ZM12.0175 19.92L12.6131 21.12C12.6482 21.1886 12.7182 21.2571 12.7883 21.2914L13.6292 21.5657L12.0175 23.1429L10.4058 21.5657L11.2467 21.2914C11.3168 21.2571 11.3869 21.2229 11.4219 21.12L12.0175 19.92Z" fill="white"/>
</svg>
