<svg width="44" height="44" viewBox="0 0 44 44" fill="none" xmlns="http://www.w3.org/2000/svg">
<g filter="url(#filter0_d_145_380)">
<path d="M21.7723 8.10286L19.7051 10.1257L16.9372 9.16571C16.762 9.09714 16.5869 9.2 16.5168 9.37143L15.5358 12.08L12.6277 12.3886C12.4526 12.4229 12.3124 12.56 12.3474 12.7314L12.6628 15.5771L10.1752 17.0857C10.035 17.1886 9.96496 17.36 10.0701 17.5314L11.6117 19.9657L10.0701 22.4C9.96496 22.5371 10.035 22.7429 10.1752 22.8457L12.6628 24.3543L12.3474 27.2C12.3124 27.3714 12.4526 27.5429 12.6277 27.5429L15.5358 27.8514L16.5168 30.56C16.5869 30.7314 16.762 30.8 16.9372 30.7657L19.7051 29.8057L21.7723 31.8286C21.9124 31.9657 22.0876 31.9657 22.2277 31.8286L24.2949 29.8057L27.0628 30.7657C27.238 30.8343 27.4131 30.7314 27.4832 30.56L28.4642 27.8514L31.3723 27.5429C31.5475 27.5086 31.6876 27.3714 31.6526 27.2L31.3372 24.3543L33.8248 22.8457C33.965 22.7429 34.035 22.5714 33.9299 22.4L32.3883 19.9657L33.9299 17.5314C34.035 17.3943 33.965 17.1886 33.8248 17.0857L31.3372 15.5771L31.6526 12.7314C31.6876 12.56 31.5475 12.3886 31.3723 12.3886L28.4642 12.08L27.4832 9.37143C27.4131 9.2 27.238 9.13143 27.0628 9.16571L24.2949 10.1257L22.2277 8.10286C22.0876 7.96571 21.9124 7.96571 21.7723 8.10286ZM22.0175 8.75429L23.6292 10.3314L22.7883 10.64C22.7182 10.6743 22.6482 10.7086 22.6131 10.8114L22.0175 12.0114L21.4219 10.8114C21.3869 10.7429 21.3168 10.6743 21.2467 10.64L20.4058 10.3314L22.0175 8.75429ZM17.0423 9.85143L19.2146 10.6057L18.5839 11.2229C18.5139 11.2914 18.4788 11.36 18.4788 11.4286V12.7657L17.4277 11.9429C17.3577 11.8743 17.2876 11.8743 17.1825 11.8743L16.2715 11.9771L17.0423 9.85143ZM26.9577 9.85143L27.7285 11.9771L26.8175 11.8743C26.7475 11.8743 26.6423 11.8743 26.5723 11.9429L25.5212 12.7657V11.4286C25.5212 11.36 25.4861 11.2571 25.4161 11.2229L24.7854 10.6057L26.9577 9.85143ZM19.8803 10.8457L20.8964 11.1886L21.6672 12.7314L20.7562 14.5829L19.1445 13.3143V11.6L19.8803 10.8457ZM24.1197 10.8457L24.8905 11.6V13.3143L23.2788 14.5829L22.3679 12.7314L23.1387 11.1886L24.1197 10.8457ZM17.1124 12.5257L18.4788 13.5886V15.6114L16.4467 15.1657L15.6759 13.6229L16.0263 12.6286L17.1124 12.5257ZM26.8876 12.5257L27.9737 12.6286L28.3241 13.6229L27.5533 15.1657L25.5212 15.6114V13.5886L26.8876 12.5257ZM15.3256 12.7314L15.0453 13.5543C15.0102 13.6229 15.0102 13.7257 15.0453 13.7943L15.6409 14.9943L14.3095 14.6857C14.2394 14.6514 14.1343 14.6857 14.0642 14.72L13.2934 15.2L13.0482 12.9714L15.3256 12.7314ZM28.6745 12.7314L30.9518 12.9714L30.7066 15.2L29.9358 14.72C29.8657 14.6857 29.7606 14.6514 29.6905 14.6857L28.3591 14.9943L28.9547 13.7943C28.9898 13.7257 28.9898 13.6229 28.9547 13.5543L28.6745 12.7314ZM22.0175 13.4514L22.7533 14.96L22.0175 15.5429L21.2818 14.96L22.0175 13.4514ZM19.1095 14.0686L20.4409 15.1314L20.0204 15.9886L19.0745 15.7829L19.1095 14.0686ZM24.8905 14.0686V15.7486L23.9445 15.9543L23.5241 15.0971L24.8905 14.0686ZM14.3095 15.3371L15.9912 15.7143L16.9022 17.5657L14.8701 18.0114L13.5037 16.9486L13.3985 15.8857L14.3095 15.3371ZM29.6905 15.3371L30.6015 15.8857L30.4964 16.9486L29.1299 18.0114L27.0978 17.5657L28.0088 15.7143L29.6905 15.3371ZM20.9664 15.5429L21.492 15.9543L21.1416 16.2286L20.6861 16.1257L20.9664 15.5429ZM23.0336 15.5429L23.3139 16.1257L22.8584 16.2286L22.508 15.9543L23.0336 15.5429ZM16.7971 15.8857L18.4788 16.2629V17.1886L17.5328 17.3943L16.7971 15.8857ZM27.2029 15.8857L26.4672 17.3943L25.5212 17.1886V16.2629L27.2029 15.8857ZM12.8029 16.2629L12.908 17.1543C12.908 17.2229 12.9431 17.3257 13.0132 17.36L14.0642 18.1829L12.7329 18.4914C12.6628 18.5257 12.5927 18.56 12.5226 18.6286L12.0321 19.3829L10.8059 17.4971L12.8029 16.2629ZM31.1971 16.2629L33.1241 17.4629L31.8978 19.3486L31.4073 18.5943C31.3723 18.5257 31.3022 18.4571 31.1971 18.4571L29.8657 18.1486L30.9168 17.3257C30.9869 17.2571 31.0219 17.1886 31.0219 17.12L31.1971 16.2629ZM19.1095 16.4L19.7402 16.5371L19.5299 16.9486L19.0745 17.0514L19.1095 16.4ZM24.8905 16.4V17.0514L24.435 16.9486L24.2248 16.5371L24.8905 16.4ZM22.0175 17.0514L22.6482 17.1886L23.2788 17.3257L23.8044 17.7371L24.3299 18.1486L24.6102 18.7314L24.8905 19.3143V19.9657V20.6171L24.6102 21.2L24.3299 21.7829L23.8044 22.1943L23.2788 22.6057L22.6482 22.7429L22.0175 22.88L21.3869 22.7429L20.7562 22.6057L20.2307 22.1943L19.7051 21.7829L19.3898 21.1657L19.1095 20.5829V19.9314V19.28L19.3898 18.6971L19.6701 18.1143L20.1956 17.7029L20.7212 17.2914L21.3518 17.1543L22.0175 17.0514ZM18.4788 17.84V18.2857L18.1285 18.56L17.8482 17.9771L18.4788 17.84ZM25.5212 17.84L26.1518 17.9771L25.8715 18.56L25.5212 18.2857V17.84ZM17.1825 18.1143L17.6029 18.9714L16.8672 19.5543L15.5358 18.4914L17.1825 18.1143ZM26.8175 18.1143L28.4993 18.4914L27.1679 19.5543L26.4321 18.9714L26.8175 18.1143ZM14.7299 18.6971L16.3416 19.9657L14.7299 21.2343L13.0482 20.8571L12.4876 19.9657L13.0482 19.0743L14.7299 18.6971ZM29.2701 18.6971L30.9518 19.0743L31.5124 19.9657L30.9518 20.8571L29.2701 21.2343L27.6584 19.9657L29.2701 18.6971ZM17.8832 19.5543L18.0934 19.9657L17.8832 20.3771L17.3577 19.9657L17.8832 19.5543ZM26.1168 19.5543L26.6423 19.9657L26.1168 20.3771L25.9066 19.9657L26.1168 19.5543ZM16.8672 20.3429L17.6029 20.9257L17.1825 21.7829L15.5007 21.4057L16.8672 20.3429ZM27.1329 20.3429L28.4642 21.4057L26.7825 21.7829L26.362 20.9257L27.1329 20.3429ZM12.0672 20.5486L12.5577 21.3029C12.5927 21.3714 12.6628 21.44 12.7679 21.44L14.0993 21.7486L13.0482 22.5714C12.9781 22.64 12.9431 22.7086 12.9431 22.7771L12.838 23.6686L10.911 22.4686L12.0672 20.5486ZM31.9329 20.5486L33.1591 22.4343L31.2321 23.6343L31.127 22.7429C31.127 22.6743 31.092 22.5714 31.0219 22.5371L29.9708 21.7143L31.3022 21.4057C31.3723 21.3714 31.4423 21.3371 31.5124 21.2686L31.9329 20.5486ZM18.1285 21.3371L18.4788 21.6114V22.0571L17.8482 21.92L18.1285 21.3371ZM25.8715 21.3371L26.1518 21.92L25.5212 22.0571V21.6114L25.8715 21.3371ZM14.8701 21.8857L16.9022 22.3314L15.9912 24.1828L14.3095 24.56L13.3985 24.0114L13.5037 22.9486L14.8701 21.8857ZM29.1299 21.8857L30.4964 22.9486L30.6015 24.0114L29.6905 24.56L28.0088 24.1828L27.0978 22.3314L29.1299 21.8857ZM17.5328 22.5029L18.4788 22.7086V23.6343L16.7971 24.0114L17.5328 22.5029ZM26.4672 22.5029L27.2029 24.0114L25.5212 23.6343V22.7086L26.4672 22.5029ZM19.1095 22.8457L19.565 22.9486L19.7752 23.36L19.1445 23.4971L19.1095 22.8457ZM24.8905 22.8457V23.4971L24.2598 23.36L24.4701 22.9486L24.8905 22.8457ZM21.1416 23.7028L21.492 23.9771L20.9664 24.3886L20.6861 23.8057L21.1416 23.7028ZM22.8584 23.7028L23.3139 23.8057L23.0336 24.3886L22.508 23.9771L22.8584 23.7028ZM20.0555 23.9428L20.4759 24.8L19.1445 25.8628V24.1828L20.0555 23.9428ZM23.9445 23.9428L24.8905 24.1486V25.8286L23.5591 24.7657L23.9445 23.9428ZM18.4788 24.2857V26.3086L17.1124 27.3714L16.0263 27.2686L15.6759 26.2743L16.4467 24.7314L18.4788 24.2857ZM25.5212 24.2857L27.5533 24.7314L28.3241 26.2743L27.9737 27.2686L26.8876 27.3714L25.5212 26.3086V24.2857ZM22.0175 24.3543L22.7533 24.9371L22.0175 26.4457L21.2818 24.9371L22.0175 24.3543ZM13.3285 24.6971L14.0993 25.1771C14.1694 25.2114 14.2745 25.2457 14.3445 25.2114L15.6759 24.9028L15.0803 26.1029C15.0453 26.1714 15.0453 26.2743 15.0803 26.3428L15.3956 27.1657L13.1183 26.9257L13.3285 24.6971ZM30.6715 24.6971L30.9168 26.9257L28.6394 27.1657L28.9547 26.3428C28.9898 26.2743 28.9898 26.1714 28.9547 26.1029L28.3591 24.9028L29.6905 25.2114C29.7606 25.2457 29.8657 25.2114 29.9358 25.1771L30.6715 24.6971ZM20.7562 25.3486L21.6672 27.2L20.8964 28.7429L19.8803 29.0857L19.1095 28.3314V26.6171L20.7562 25.3486ZM23.2438 25.3486L24.8555 26.6171V28.3314L24.0847 29.0857L23.0686 28.7429L22.2978 27.2L23.2438 25.3486ZM18.4788 27.1314V28.4686C18.4788 28.5371 18.5139 28.64 18.5839 28.6743L19.2146 29.2914L17.0423 30.0457L16.2715 27.92L17.1825 28.0229C17.2525 28.0229 17.3577 28.0229 17.4277 27.9543L18.4788 27.1314ZM25.5212 27.1314L26.5723 27.9543C26.6423 28.0229 26.7124 28.0229 26.8175 28.0229L27.7285 27.92L26.9577 30.0457L24.7854 29.2914L25.4161 28.6743C25.4861 28.6057 25.5212 28.5371 25.5212 28.4686V27.1314ZM22.0175 27.92L22.6131 29.12C22.6482 29.1886 22.7182 29.2571 22.7883 29.2914L23.6292 29.5657L22.0175 31.1429L20.4058 29.5657L21.2467 29.2914C21.3168 29.2571 21.3869 29.2229 21.4219 29.12L22.0175 27.92Z" fill="white"/>
</g>
<defs>
<filter id="filter0_d_145_380" x="0" y="0" width="44" height="44" filterUnits="userSpaceOnUse" color-interpolation-filters="sRGB">
<feFlood flood-opacity="0" result="BackgroundImageFix"/>
<feColorMatrix in="SourceAlpha" type="matrix" values="0 0 0 0 0 0 0 0 0 0 0 0 0 0 0 0 0 0 127 0" result="hardAlpha"/>
<feOffset dy="2"/>
<feGaussianBlur stdDeviation="5"/>
<feComposite in2="hardAlpha" operator="out"/>
<feColorMatrix type="matrix" values="0 0 0 0 1 0 0 0 0 1 0 0 0 0 1 0 0 0 0.25 0"/>
<feBlend mode="normal" in2="BackgroundImageFix" result="effect1_dropShadow_145_380"/>
<feBlend mode="normal" in="SourceGraphic" in2="effect1_dropShadow_145_380" result="shape"/>
</filter>
</defs>
</svg>
