<svg width="15" height="24" viewBox="0 0 15 24" fill="none" xmlns="http://www.w3.org/2000/svg">
<path d="M13.5874 8.34438C13.6101 8.12105 13.6215 7.89477 13.6215 7.66981C13.6215 6.06045 12.5886 4.33101 10.5518 2.52953C9.17816 1.31485 7.81344 0.47974 7.75597 0.444783L7.02458 0L6.2938 0.444602C6.23663 0.479318 4.87849 1.30833 3.49771 2.52953C1.46084 4.33101 0.427999 6.06045 0.427999 7.66981C0.427999 7.89471 0.43941 8.12099 0.462051 8.34438H0V24H14.0495V8.34438H13.5874ZM0.639614 9.09756V10.0826C0.476903 10.1841 0.345044 10.3348 0.255809 10.5113V8.7562L0.639614 9.09756ZM0.639614 22.1728C0.564145 21.9035 0.43307 21.6681 0.255809 21.4877V20.9073C0.343957 21.0929 0.474851 21.2636 0.639614 21.4046V22.1728ZM0.255809 23.5776V21.7892C0.418218 22.0271 0.512645 22.335 0.52146 22.6754C0.530879 23.0386 0.434036 23.3582 0.255809 23.5776ZM0.639614 19.4052C0.476903 19.5067 0.345044 19.6575 0.255809 19.8339V19.1873C0.432346 19.041 0.563964 18.8325 0.639614 18.5839V19.4052ZM0.639614 19.6425V21.1373C0.456376 20.9354 0.342086 20.6876 0.322886 20.4346C0.299702 20.1295 0.425222 19.8283 0.639614 19.6425ZM0.639614 14.7438C0.476964 14.8454 0.345044 14.9961 0.255809 15.1726V14.5261C0.432346 14.3798 0.563964 14.1712 0.639614 13.9227V14.7438ZM0.639614 14.9812V16.476C0.456376 16.274 0.342086 16.0263 0.322886 15.7734C0.299702 15.4682 0.425222 15.167 0.639614 14.9812ZM0.639614 11.8147C0.456376 11.6128 0.342086 11.365 0.322886 11.112C0.299702 10.8069 0.425222 10.5056 0.639614 10.3199V11.8147ZM0.639614 12.0819V12.8501C0.564145 12.5808 0.43307 12.3454 0.255809 12.165V11.5847C0.343957 11.7703 0.474851 11.941 0.639614 12.0819ZM0.52146 13.3527C0.530818 13.716 0.434036 14.0356 0.255809 14.2549V12.4666C0.418218 12.7045 0.512645 13.0125 0.52146 13.3527ZM0.639614 16.7432V17.5114C0.564145 17.2422 0.43307 17.0067 0.255809 16.8264V16.246C0.343957 16.4316 0.474851 16.6023 0.639614 16.7432ZM0.52146 18.0141C0.530818 18.3773 0.434036 18.6969 0.255809 18.9162V17.1279C0.418218 17.3658 0.512645 17.6738 0.52146 18.0141ZM0.639614 23.2453V23.3603H13.4097V23.353C13.4679 23.5026 13.5476 23.6349 13.6465 23.7441H0.365089C0.487167 23.6093 0.580507 23.4395 0.639614 23.2453ZM1.64323 9.12582C1.5159 8.65555 1.45142 8.16567 1.45142 7.66981C1.45142 6.36643 2.36803 4.89497 4.17566 3.29618C5.48647 2.13686 6.77113 1.3521 6.82528 1.3192L7.02464 1.19784L7.22406 1.31908C7.27834 1.35216 8.5691 2.14241 9.87374 3.29612C11.6814 4.89491 12.598 6.36637 12.598 7.66975C12.598 8.16519 12.5334 8.65507 12.4062 9.12582L12.3407 9.3678H13.0259V22.9765H1.02342V9.3678H1.7088L1.64323 9.12582ZM13.4097 22.0542V21.3708C13.5812 21.2144 13.7131 21.025 13.7935 20.8208V21.4504C13.6245 21.6091 13.4943 21.8161 13.4097 22.0542ZM13.7935 21.7368V23.6216C13.5911 23.4022 13.4801 23.0636 13.4901 22.6754C13.4996 22.3095 13.6079 21.9809 13.7935 21.7368ZM13.4097 10.3549C13.6008 10.5422 13.7105 10.8253 13.6887 11.112C13.6709 11.3472 13.5709 11.5779 13.4097 11.7715V10.3549ZM13.4097 14.7689V14.0304C13.4944 14.2482 13.6249 14.4295 13.7935 14.5561V15.255C13.7121 15.0577 13.5791 14.8861 13.4097 14.7689ZM13.6887 15.7734C13.6709 16.0085 13.5709 16.2392 13.4097 16.4328V15.0163C13.6008 15.2036 13.7105 15.4866 13.6887 15.7734ZM13.4097 19.4301V18.6916C13.4944 18.9095 13.6249 19.0907 13.7935 19.2173V19.9163C13.7121 19.7189 13.5791 19.5473 13.4097 19.4301ZM13.6887 20.4347C13.6709 20.6698 13.5709 20.9005 13.4097 21.0941V19.6776C13.6008 19.8649 13.7105 20.1479 13.6887 20.4347ZM13.7935 18.9602C13.5911 18.7408 13.4801 18.4022 13.4901 18.0141C13.4996 17.6482 13.6079 17.3196 13.7935 17.0755V18.9602ZM13.4097 17.3929V16.7096C13.5812 16.553 13.7131 16.3637 13.7935 16.1595V16.789C13.6245 16.9478 13.4943 17.1548 13.4097 17.3929ZM13.7935 14.2989C13.5911 14.0796 13.4801 13.7409 13.4901 13.3528C13.4996 12.9869 13.6079 12.6583 13.7935 12.4142V14.2989ZM13.4097 12.7316V12.0483C13.5812 11.8918 13.7131 11.7024 13.7935 11.4982V12.1278C13.6245 12.2865 13.4943 12.4935 13.4097 12.7316ZM13.7935 10.5937C13.7121 10.3963 13.5791 10.2247 13.4097 10.1075V9.06399L13.7935 8.72269V10.5937ZM0.732109 8.45662C0.70005 8.19731 0.683808 7.93256 0.683808 7.66975C0.683808 6.13689 1.68754 4.47192 3.66718 2.72117C5.03106 1.51493 6.37024 0.697453 6.42663 0.66322L7.02458 0.29946L7.62296 0.663341C7.67959 0.697815 9.02553 1.52139 10.3822 2.72117C12.3619 4.47198 13.3656 6.13701 13.3656 7.66981C13.3656 7.93268 13.3494 8.19743 13.3172 8.45662L13.2995 8.60025H13.6424L13.2109 8.98405H12.8365C12.933 8.55569 12.9818 8.11477 12.9818 7.66981C12.9818 6.25172 12.0216 4.68348 10.128 3.00873C8.79816 1.83269 7.47915 1.02523 7.4236 0.991299L7.02464 0.748651L6.62592 0.991238C6.57062 1.02481 5.25764 1.82695 3.92148 3.00867C2.02782 4.68348 1.06767 6.25166 1.06767 7.66975C1.06767 8.11508 1.11646 8.556 1.21288 8.98399H0.800816L0.369255 8.60019H0.749859L0.732109 8.45662Z" fill="white"/>
<path d="M12.8341 9.56008H12.0647C12.2914 8.95712 12.406 8.3227 12.406 7.6701C12.406 4.72996 7.34002 1.61466 7.12436 1.48347L7.02468 1.42285L6.925 1.48353C6.70928 1.61472 1.64339 4.73002 1.64339 7.67016C1.64339 8.32282 1.7581 8.95724 1.98463 9.56014H1.21533V22.7851H12.8341V9.56008ZM12.0786 9.94389L12.0735 10.9773L11.3553 11.4056L11.1549 10.5938L11.8054 9.94383L12.0786 9.94389ZM2.88313 17.3024L2.43654 18.0419L2.00027 17.3106L2.44686 16.571L2.88313 17.3024ZM2.53187 16.5357L3.34373 16.3352L4.26802 17.2603L2.96029 17.2539L2.53187 16.5357ZM2.95999 17.3514L4.26778 17.352L3.33848 18.2722L2.52771 18.0672L2.95999 17.3514ZM4.33244 17.4171L4.32598 18.7248L3.60782 19.1532L3.40737 18.3413L4.33244 17.4171ZM3.41292 16.2664L3.61784 15.4557L4.33364 15.8879L4.33304 17.1957L3.41292 16.2664ZM2.44547 9.67492C2.36994 9.50261 2.30546 9.32704 2.25028 9.14899L2.44686 8.82351L2.88313 9.55489L2.43654 10.2944L2.22746 9.94389H2.56345L2.44547 9.67492ZM2.21563 9.03011C2.18894 8.93563 2.16461 8.84047 2.1436 8.7446L2.3557 8.79821L2.21563 9.03011ZM4.33244 5.79576L4.32598 7.10348L3.60782 7.53184L3.40737 6.71998L4.33244 5.79576ZM3.33848 6.65085L2.52771 6.44594L2.95999 5.73013L4.26778 5.73073L3.33848 6.65085ZM5.43319 6.74552L6.33429 6.52298L7.19204 6.73978L7.41458 7.64088L7.19778 8.49863L6.29668 8.72117L5.43893 8.50437L5.21639 7.60327L5.43319 6.74552ZM5.41345 6.65647L4.48917 5.73134L5.79689 5.7378L6.22526 6.45596L5.41345 6.65647ZM4.42475 13.3222L4.43121 12.0145L5.14937 11.5861L5.34988 12.398L4.42475 13.3222ZM5.4187 12.4671L6.22942 12.672L5.79714 13.3878L4.48941 13.3872L5.4187 12.4671ZM5.79689 13.4854L6.22526 14.2035L5.41345 14.404L4.48917 13.4789L5.79689 13.4854ZM5.87405 13.4368L6.32065 12.6973L6.75692 13.4287L6.31032 14.1682L5.87405 13.4368ZM6.83378 13.4777L8.14156 13.4783L7.21227 14.3984L6.40149 14.1935L6.83378 13.4777ZM6.83402 13.3801L6.40566 12.6619L7.21752 12.4614L8.1418 13.3865L6.83402 13.3801ZM7.19778 12.3724L6.29668 12.595L5.43893 12.3782L5.21639 11.4771L5.43319 10.6193L6.33429 10.3968L7.19204 10.6136L7.41458 11.5147L7.19778 12.3724ZM6.83402 9.50629L6.40566 8.78813L7.21752 8.58762L8.1418 9.51275L6.83402 9.50629ZM8.14156 9.60452L7.21227 10.5246L6.40149 10.3197L6.83378 9.60392L8.14156 9.60452ZM6.75692 9.55489L6.31032 10.2944L5.87405 9.56304L6.32065 8.82351L6.75692 9.55489ZM5.7972 9.51402L4.48947 9.51341L5.41877 8.5933L6.22948 8.79821L5.7972 9.51402ZM5.79689 9.61158L6.22526 10.3297L5.41345 10.5302L4.48917 9.60506L5.79689 9.61158ZM7.28103 10.5938L8.20616 9.6696L8.1997 10.9773L7.48154 11.4057L7.28103 10.5938ZM7.28671 8.51886L7.49162 7.70808L8.20743 8.14036L8.20682 9.44815L7.28671 8.51886ZM7.48154 7.5319L7.28109 6.72004L8.20622 5.79582L8.19976 7.10354L7.48154 7.5319ZM7.21227 6.65085L6.40149 6.44594L6.83378 5.73013L8.14156 5.73073L7.21227 6.65085ZM5.34988 8.52411L4.42475 9.44839L4.43121 8.14067L5.14937 7.71231L5.34988 8.52411ZM5.34426 10.5991L5.13935 11.4099L4.42354 10.9776L4.42415 9.66985L5.34426 10.5991ZM5.11405 11.501L4.38267 11.9373L3.64313 11.4907L4.37452 11.0544L5.11405 11.501ZM4.42415 13.5436L5.34426 14.4728L5.13935 15.2836L4.42354 14.8513L4.42415 13.5436ZM5.14943 15.4598L5.34994 16.2717L4.42481 17.196L4.43127 15.8882L5.14943 15.4598ZM5.4187 16.3408L6.22942 16.5457L5.79714 17.2615L4.48941 17.2609L5.4187 16.3408ZM5.79689 17.3592L6.22526 18.0773L5.41345 18.2778L4.48917 17.3527L5.79689 17.3592ZM5.87405 17.3106L6.32065 16.5711L6.75692 17.3025L6.31032 18.042L5.87405 17.3106ZM6.83378 17.3514L8.14156 17.352L7.21227 18.2722L6.40149 18.0672L6.83378 17.3514ZM6.83402 17.2539L6.40566 16.5357L7.21752 16.3352L8.1418 17.2603L6.83402 17.2539ZM7.19778 16.2462L6.29668 16.4687L5.43893 16.2519L5.21639 15.3508L5.43319 14.4931L6.33429 14.2705L7.19204 14.4874L7.41458 15.3885L7.19778 16.2462ZM7.28103 14.4676L8.20616 13.5434L8.1997 14.8511L7.48154 15.2795L7.28103 14.4676ZM7.28671 12.3926L7.49162 11.5819L8.20743 12.0142L8.20682 13.3219L7.28671 12.3926ZM7.51692 11.4907L8.2483 11.0544L8.98784 11.501L8.25645 11.9373L7.51692 11.4907ZM9.74784 9.56304L10.1944 8.82351L10.6307 9.55489L10.1841 10.2944L9.74784 9.56304ZM10.0991 10.3298L9.2873 10.5303L8.36302 9.60512L9.67074 9.61158L10.0991 10.3298ZM9.67098 9.51402L8.36326 9.51341L9.29255 8.5933L10.1033 8.79821L9.67098 9.51402ZM8.29854 9.44839L8.305 8.14067L9.02316 7.71231L9.2236 8.52417L8.29854 9.44839ZM9.21805 10.5991L9.01313 11.4099L8.29733 10.9776L8.29793 9.66985L9.21805 10.5991ZM9.74784 13.4368L10.1944 12.6973L10.6307 13.4287L10.1841 14.1682L9.74784 13.4368ZM10.0991 14.2035L9.2873 14.404L8.36302 13.4789L9.67074 13.4854L10.0991 14.2035ZM9.67098 13.3878L8.36326 13.3872L9.29255 12.4671L10.1033 12.672L9.67098 13.3878ZM8.29854 13.3222L8.305 12.0145L9.02316 11.5861L9.2236 12.398L8.29854 13.3222ZM8.29793 13.5436L9.21805 14.4728L9.01313 15.2836L8.29733 14.8513L8.29793 13.5436ZM9.02322 15.4598L9.22366 16.2717L8.29854 17.196L8.305 15.8882L9.02322 15.4598ZM9.29249 16.3408L10.1032 16.5457L9.67092 17.2615L8.3632 17.2609L9.29249 16.3408ZM9.67068 17.3592L10.0991 18.0773L9.2873 18.2778L8.36302 17.3527L9.67068 17.3592ZM9.74784 17.3106L10.1944 16.5711L10.6307 17.3025L10.1841 18.042L9.74784 17.3106ZM10.7076 17.3514L12.0153 17.352L11.086 18.2722L10.2752 18.0672L10.7076 17.3514ZM10.7078 17.2539L10.2794 16.5357L11.0912 16.3352L12.0155 17.2603L10.7078 17.2539ZM11.0716 16.2462L10.1705 16.4687L9.31272 16.2519L9.09017 15.3508L9.30698 14.4931L10.2081 14.2705L11.0658 14.4874L11.2884 15.3885L11.0716 16.2462ZM10.2753 14.1935L10.7076 13.4777L12.0153 13.4783L11.086 14.3984L10.2753 14.1935ZM10.7078 13.3801L10.2794 12.6619L11.0912 12.4614L12.0155 13.3865L10.7078 13.3801ZM11.0716 12.3724L10.1705 12.595L9.31272 12.3782L9.09017 11.4771L9.30698 10.6193L10.2081 10.3968L11.0658 10.6136L11.2884 11.5147L11.0716 12.3724ZM10.2753 10.3197L10.7076 9.60392L11.6326 9.60434C11.6228 9.62783 11.614 9.65161 11.6038 9.67492L11.4859 9.94389H11.6726L11.0861 10.5246L10.2753 10.3197ZM11.6707 9.51106L10.7079 9.50629L10.2794 8.78813L11.0913 8.58762L11.7629 9.25984C11.7345 9.34424 11.7037 9.42798 11.6707 9.51106ZM11.1605 8.51886L11.3654 7.70808L12.0033 8.09327C11.9729 8.45727 11.9041 8.81397 11.7958 9.1604L11.1605 8.51886ZM11.0716 8.49863L10.1705 8.72117L9.31272 8.50437L9.09017 7.60327L9.30698 6.74552L10.2081 6.52298L11.0658 6.73978L11.2884 7.64088L11.0716 8.49863ZM9.28724 6.65647L8.36295 5.73134L9.67068 5.7378L10.0991 6.45596L9.28724 6.65647ZM10.1841 6.42064L9.74784 5.68926L10.1944 4.94972L10.6307 5.68111L10.1841 6.42064ZM9.67098 5.64023L8.36326 5.63963L9.29255 4.71951L10.1033 4.92442L9.67098 5.64023ZM8.29854 5.5746L8.305 4.26688L9.02316 3.83852L9.2236 4.65038L8.29854 5.5746ZM9.21805 6.72529L9.01313 7.53607L8.29733 7.10378L8.29793 5.79606L9.21805 6.72529ZM8.98784 7.62724L8.25645 8.06351L7.51692 7.61691L8.2483 7.18064L8.98784 7.62724ZM8.20682 5.57436L7.28671 4.64507L7.49162 3.83429L8.20743 4.26658L8.20682 5.57436ZM8.1418 5.63902L6.83408 5.63256L6.40572 4.9144L7.21758 4.7139L8.1418 5.63902ZM6.75692 5.68111L6.31032 6.42064L5.87405 5.68926L6.32065 4.94972L6.75692 5.68111ZM5.7972 5.64023L4.48947 5.63963L5.41877 4.71951L6.22948 4.92442L5.7972 5.64023ZM4.42475 5.5746L4.43121 4.26688L5.14937 3.83852L5.34988 4.65038L4.42475 5.5746ZM5.34426 6.72529L5.13935 7.53607L4.42354 7.10378L4.42415 5.79606L5.34426 6.72529ZM5.11405 7.62724L4.38267 8.06351L3.64313 7.61691L4.37452 7.18064L5.11405 7.62724ZM3.61784 7.70808L4.33364 8.14036L4.33304 9.44815L3.41292 8.51886L3.61784 7.70808ZM4.26802 9.51281L2.96029 9.50635L2.53193 8.78819L3.34379 8.58768L4.26802 9.51281ZM2.95999 9.60392L4.26778 9.60452L3.33848 10.5246L2.52771 10.3197L2.95999 9.60392ZM4.33244 9.66954L4.32598 10.9773L3.60782 11.4056L3.40737 10.5938L4.33244 9.66954ZM3.61784 11.5819L4.33364 12.0142L4.33304 13.3219L3.41292 12.3926L3.61784 11.5819ZM4.26802 13.3866L2.96029 13.3801L2.53193 12.662L3.34379 12.4615L4.26802 13.3866ZM2.88313 13.4287L2.43654 14.1682L2.00027 13.4368L2.44686 12.6973L2.88313 13.4287ZM2.95999 13.4777L4.26778 13.4783L3.33848 14.3984L2.52771 14.1935L2.95999 13.4777ZM4.33244 13.5433L4.32598 14.8511L3.60782 15.2794L3.40737 14.4676L4.33244 13.5433ZM3.64313 15.3645L4.37452 14.9282L5.11405 15.3748L4.38267 15.8111L3.64313 15.3645ZM4.42415 17.4174L5.34426 18.3466L5.13935 19.1574L4.42354 18.7251L4.42415 17.4174ZM5.14943 19.3336L5.34994 20.1455L4.42481 21.0697L4.43127 19.762L5.14943 19.3336ZM5.4187 20.2146L6.22942 20.4195L5.79714 21.1353L4.48941 21.1347L5.4187 20.2146ZM5.79689 21.2329L6.22526 21.9511L5.41345 22.1516L4.48917 21.2265L5.79689 21.2329ZM5.87405 21.1843L6.32065 20.4448L6.75692 21.1762L6.31032 21.9157L5.87405 21.1843ZM6.83378 21.2252L8.14156 21.2258L7.21227 22.1459L6.40149 21.941L6.83378 21.2252ZM6.83402 21.1276L6.40566 20.4095L7.21752 20.209L8.1418 21.1341L6.83402 21.1276ZM7.19778 20.1199L6.29668 20.3425L5.43893 20.1257L5.21639 19.2246L5.43319 18.3668L6.33429 18.1443L7.19204 18.3611L7.41458 19.2622L7.19778 20.1199ZM7.28103 18.3413L8.20616 17.4171L8.1997 18.7248L7.48154 19.1532L7.28103 18.3413ZM7.28671 16.2664L7.49162 15.4557L8.20743 15.8879L8.20682 17.1957L7.28671 16.2664ZM7.51692 15.3645L8.2483 14.9282L8.98784 15.3748L8.25645 15.8111L7.51692 15.3645ZM8.29793 17.4174L9.21805 18.3466L9.01313 19.1574L8.29733 18.7251L8.29793 17.4174ZM9.02322 19.3336L9.22366 20.1455L8.29854 21.0697L8.305 19.762L9.02322 19.3336ZM9.29249 20.2146L10.1032 20.4195L9.67092 21.1353L8.3632 21.1347L9.29249 20.2146ZM9.67068 21.2329L10.0991 21.9511L9.2873 22.1516L8.36302 21.2265L9.67068 21.2329ZM9.74784 21.1843L10.1944 20.4448L10.6307 21.1762L10.1841 21.9157L9.74784 21.1843ZM10.7076 21.2252L12.0153 21.2258L11.086 22.1459L10.2752 21.941L10.7076 21.2252ZM10.7078 21.1276L10.2794 20.4095L11.0912 20.209L12.0155 21.1341L10.7078 21.1276ZM11.0716 20.1199L10.1705 20.3425L9.31272 20.1257L9.09017 19.2246L9.30698 18.3668L10.2081 18.1443L11.0658 18.3611L11.2884 19.2622L11.0716 20.1199ZM11.1548 18.3413L12.0799 17.4171L12.0735 18.7248L11.3553 19.1532L11.1548 18.3413ZM11.1605 16.2664L11.3654 15.4557L12.0812 15.8879L12.0806 17.1957L11.1605 16.2664ZM11.3553 15.2794L11.1549 14.4676L12.08 13.5433L12.0735 14.8511L11.3553 15.2794ZM11.1605 12.3926L11.3654 11.5819L12.0812 12.0142L12.0806 13.3219L11.1605 12.3926ZM12.0223 7.6701C12.0223 7.77787 12.0177 7.88486 12.011 7.99148L11.3907 7.61691L11.9855 7.26209C12.0091 7.39872 12.0223 7.53492 12.0223 7.6701ZM11.9675 7.16676L11.3553 7.5319L11.1549 6.72004L11.626 6.2493C11.7852 6.55407 11.9033 6.86138 11.9675 7.16676ZM11.5793 6.16248L11.0861 6.65085L10.2753 6.44594L10.7076 5.73013L11.3157 5.73043C11.4115 5.8734 11.4998 6.01758 11.5793 6.16248ZM11.2508 5.63522L10.7078 5.63256L10.2794 4.9144L10.611 4.83247C10.8438 5.09281 11.0605 5.36154 11.2508 5.63522ZM9.1619 3.44566C9.62914 3.83816 10.1104 4.28209 10.5419 4.75568L10.1705 4.84739L9.31272 4.63058L9.09017 3.72948L9.1619 3.44566ZM8.29751 2.7598C8.54505 2.94569 8.8116 3.15435 9.08426 3.38082L9.01313 3.66222L8.29733 3.22994L8.29751 2.7598ZM8.98784 3.75345L8.25645 4.18972L7.51692 3.74313L8.2483 3.30686L8.98784 3.75345ZM8.20242 2.6888L8.19976 3.22976L7.4816 3.65812L7.28116 2.84625L7.75951 2.36833C7.89607 2.46462 8.04484 2.57179 8.20242 2.6888ZM7.02468 1.87397C7.14887 1.95301 7.38156 2.10424 7.68078 2.3132L7.21227 2.77713L6.40149 2.57221L6.69135 2.09229C6.83553 1.99551 6.94994 1.92155 7.02468 1.87397ZM6.51089 2.21467L6.31026 2.54685L6.22936 2.41119C6.3297 2.33995 6.42389 2.27438 6.51089 2.21467ZM6.15492 2.46426L6.22526 2.58223L5.87363 2.66905C5.9712 2.59691 6.0652 2.52856 6.15492 2.46426ZM5.68653 2.80918L6.33429 2.64919L7.19204 2.866L7.41458 3.7671L7.19778 4.62484L6.29668 4.84739L5.43893 4.63058L5.21639 3.72948L5.39154 3.03656C5.492 2.95771 5.59053 2.88182 5.68653 2.80918ZM5.27399 3.12953L5.13935 3.66228L4.84297 3.48327C4.98847 3.36023 5.13277 3.24207 5.27399 3.12953ZM4.76973 3.54552L5.11405 3.75345L4.38267 4.18972L4.18446 4.07006C4.37802 3.88766 4.5746 3.71233 4.76973 3.54552ZM4.11587 4.13508L4.33364 4.26658L4.33304 5.57436L3.51466 4.74783C3.70707 4.537 3.90945 4.33221 4.11587 4.13508ZM3.44963 4.81986L4.26802 5.63896L2.96029 5.6325L2.88748 5.51049C3.05864 5.27545 3.24822 5.04451 3.44963 4.81986ZM2.82958 5.59133L2.88313 5.68111L2.43654 6.42064L2.3825 6.33002C2.50621 6.08145 2.65769 5.8344 2.82958 5.59133ZM2.33511 6.42849L2.35153 6.45596L2.31838 6.46417C2.32376 6.45228 2.32955 6.44038 2.33511 6.42849ZM2.27238 6.5694L2.46051 6.52292L3.31826 6.73972L3.5408 7.64082L3.32399 8.49857L2.42289 8.72111L2.12295 8.64528C2.05992 8.32656 2.0272 8.00096 2.0272 7.67004C2.02713 7.30719 2.11709 6.93757 2.27238 6.5694ZM1.59914 9.94389H2.12132L2.35153 10.3298L1.59914 10.5156V9.94389ZM1.59914 10.6095L2.46051 10.3967L3.31826 10.6135L3.5408 11.5146L3.32399 12.3724L2.42289 12.5949L1.59908 12.3867V10.6095H1.59914ZM1.59914 12.4807L2.3557 12.6719L1.92341 13.3877L1.59914 13.3876V12.4807ZM1.59914 13.4837L1.92317 13.4854L2.35153 14.2035L1.59914 14.3893V13.4837ZM1.59914 14.4832L2.46051 14.2705L3.31826 14.4873L3.5408 15.3884L3.32399 16.2461L2.42289 16.4687L1.59908 16.2605V14.4832H1.59914ZM1.59914 16.3545L2.3557 16.5457L1.92341 17.2615L1.59914 17.2614V16.3545ZM1.59914 17.3575L1.92317 17.3592L2.35153 18.0773L1.59914 18.2631V17.3575ZM1.59914 18.357L2.46051 18.1443L3.31826 18.3611L3.5408 19.2622L3.32399 20.1199L2.42289 20.3425L1.59908 20.1342V18.357H1.59914ZM2.95999 21.2252L4.26778 21.2258L3.33848 22.1459L2.52771 21.941L2.95999 21.2252ZM2.43654 21.9157L2.00027 21.1843L2.44686 20.4448L2.88313 21.1762L2.43654 21.9157ZM2.96029 21.1276L2.53193 20.4095L3.34379 20.209L4.26808 21.1341L2.96029 21.1276ZM1.59914 20.2283L2.3557 20.4195L1.92341 21.1353L1.59914 21.1351V20.2283ZM1.59914 21.2313L1.92317 21.2329L2.35153 21.9511L1.59914 22.1369V21.2313ZM1.59914 22.4012V22.2308L2.46051 22.0181L3.31826 22.2349L3.35931 22.4012H1.59914ZM4.32694 22.4012H3.45325L3.40731 22.2152L4.33244 21.291L4.32694 22.4012ZM4.33304 21.0694L3.41292 20.1402L3.61784 19.3294L4.33364 19.7617L4.33304 21.0694ZM3.64313 19.2383L4.37452 18.802L5.11405 19.2486L4.38267 19.6849L3.64313 19.2383ZM5.29856 22.4012H4.4236L4.42415 21.2911L5.34426 22.2204L5.29856 22.4012ZM5.39262 22.4012L5.43319 22.2407L6.33429 22.0181L7.19204 22.2349L7.2331 22.4013H5.39262V22.4012ZM8.20067 22.4012H7.32698L7.28103 22.2152L8.20616 21.291L8.20067 22.4012ZM8.20682 21.0694L7.28671 20.1402L7.49162 19.3294L8.20743 19.7617L8.20682 21.0694ZM7.51692 19.2383L8.2483 18.802L8.98784 19.2486L8.25645 19.6849L7.51692 19.2383ZM9.17234 22.4012H8.29739L8.29793 21.2911L9.21805 22.2204L9.17234 22.4012ZM9.26635 22.4012L9.30692 22.2407L10.208 22.0181L11.0658 22.2349L11.1068 22.4013H9.26635V22.4012ZM12.0745 22.4012H11.2008L11.1548 22.2152L12.0799 21.291L12.0745 22.4012ZM12.0806 21.0694L11.1604 20.1402L11.3653 19.3294L12.0812 19.7617L12.0806 21.0694ZM12.4503 22.4012H12.1712L12.1717 21.2911L12.4503 21.5725V22.4012ZM12.4503 21.4402L12.2367 21.2265L12.4503 21.2276V21.4402ZM12.4503 21.1348L12.237 21.1347L12.4503 20.9235V21.1348ZM12.4503 20.792L12.1723 21.0697L12.1788 19.762L12.4503 19.6V20.792ZM12.4503 19.4939L12.1302 19.6848L11.3907 19.2382L12.1221 18.8019L12.4503 19.0002V19.4939H12.4503ZM12.4503 18.8937L12.1711 18.7251L12.1717 17.4174L12.4502 17.6987L12.4503 18.8937ZM12.4503 17.5664L12.2367 17.3527L12.4503 17.3538V17.5664ZM12.4503 17.261L12.237 17.2609L12.4503 17.0497V17.261ZM12.4503 16.9182L12.1723 17.1959L12.1788 15.8882L12.4503 15.7263V16.9182ZM12.4503 15.6201L12.1302 15.811L11.3907 15.3644L12.1221 14.9282L12.4503 15.1264V15.6201H12.4503ZM12.4503 15.0199L12.1711 14.8513L12.1717 13.5436L12.4502 13.8249L12.4503 15.0199ZM12.4503 13.6926L12.2367 13.4789L12.4503 13.48V13.6926ZM12.4503 13.3873L12.237 13.3871L12.4503 13.1759V13.3873ZM12.4503 13.0445L12.1723 13.3222L12.1788 12.0145L12.4503 11.8525V13.0445ZM12.4503 11.7463L12.1302 11.9372L11.3907 11.4906L12.1221 11.0544L12.4503 11.2526V11.7463H12.4503ZM12.4503 11.1461L12.1711 10.9775L12.1715 9.94383H12.443L12.4503 9.95113V11.1461Z" fill="white"/>
</svg>
