<svg width="45" height="45" viewBox="0 0 45 45" fill="none" xmlns="http://www.w3.org/2000/svg">
<g filter="url(#filter0_d_145_144)">
<path d="M14.0996 32.4998L24.0996 32.4998C27.8708 32.4998 29.7565 32.4998 30.928 31.3282C32.0996 30.1567 32.0996 28.2711 32.0996 24.4998L32.0996 20.7351C32.0996 16.9639 32.0996 15.0783 30.928 13.9067C29.7565 12.7351 27.8708 12.7351 24.0996 12.7351L17.6996 12.7351" stroke="white" stroke-linecap="round" stroke-linejoin="round"/>
<path d="M17.7 32.5H12.9C11.5745 32.5 10.5 31.2359 10.5 29.6765M10.5 29.6765C10.5 28.1171 11.5745 26.8529 12.9 26.8529C13.6432 26.8529 14.0148 26.8529 14.3257 26.8037C16.0373 26.5326 17.3797 25.1902 17.6508 23.4787C17.7 23.1677 17.7 22.7961 17.7 22.0529V13.3C17.7 12.5568 17.7 12.1852 17.6508 11.8743C17.3797 10.1627 16.0373 8.82033 14.3257 8.54925C14.0148 8.5 13.6432 8.5 12.9 8.5C11.5745 8.5 10.5 9.76414 10.5 11.3235V29.6765Z" stroke="white" stroke-linecap="round"/>
<path d="M21.2998 25.945H21.697C22.0448 25.945 22.2187 25.945 22.3654 25.9856C22.512 26.0262 22.791 26.1904 23.349 26.5189C25.2722 27.6512 26.5549 25.6706 27.6642 24.0679C28.2213 23.2631 28.4998 22.8607 28.4998 22.6175C28.4998 22.3744 28.2213 21.972 27.6641 21.1672C26.5549 19.5646 25.2721 17.584 23.349 18.7163C22.791 19.0448 22.512 19.2091 22.3654 19.2496C22.2187 19.2902 22.0448 19.2902 21.697 19.2902L21.2998 19.2902" stroke="white" stroke-linecap="round" stroke-linejoin="round"/>
<path d="M32.1 25.4412L34.5 25.4412" stroke="white" stroke-linecap="round" stroke-linejoin="round"/>
<path d="M32.1 31.0881L34.5 31.0881" stroke="white" stroke-linecap="round" stroke-linejoin="round"/>
<path d="M32.1 19.7939L34.5 19.7939" stroke="white" stroke-linecap="round" stroke-linejoin="round"/>
<path d="M32.1 14.147L34.5 14.147" stroke="white" stroke-linecap="round" stroke-linejoin="round"/>
</g>
<defs>
<filter id="filter0_d_145_144" x="0" y="0" width="45" height="45" filterUnits="userSpaceOnUse" color-interpolation-filters="sRGB">
<feFlood flood-opacity="0" result="BackgroundImageFix"/>
<feColorMatrix in="SourceAlpha" type="matrix" values="0 0 0 0 0 0 0 0 0 0 0 0 0 0 0 0 0 0 127 0" result="hardAlpha"/>
<feOffset dy="2"/>
<feGaussianBlur stdDeviation="5"/>
<feComposite in2="hardAlpha" operator="out"/>
<feColorMatrix type="matrix" values="0 0 0 0 1 0 0 0 0 1 0 0 0 0 1 0 0 0 0.25 0"/>
<feBlend mode="normal" in2="BackgroundImageFix" result="effect1_dropShadow_145_144"/>
<feBlend mode="normal" in="SourceGraphic" in2="effect1_dropShadow_145_144" result="shape"/>
</filter>
</defs>
</svg>
