<svg width="46" height="46" viewBox="0 0 46 46" fill="none" xmlns="http://www.w3.org/2000/svg">
<g filter="url(#filter0_d_145_395)">
<path d="M15.7701 25.1778C13.8837 26.1887 8.93782 28.2528 11.9502 30.8358C13.4217 32.0975 15.0607 32.9999 17.1212 32.9999H28.8788C30.9393 32.9999 32.5783 32.0975 34.0498 30.8358C37.0622 28.2528 32.1163 26.1887 30.2299 25.1778C25.8064 22.8073 20.1936 22.8073 15.7701 25.1778Z" stroke="white" stroke-width="2" stroke-linecap="round" stroke-linejoin="round"/>
<path d="M29 14.4C29 17.3823 26.3137 19.8 23 19.8C19.6863 19.8 17 17.3823 17 14.4C17 11.4177 19.6863 9 23 9C26.3137 9 29 11.4177 29 14.4Z" stroke="white" stroke-width="2"/>
</g>
<defs>
<filter id="filter0_d_145_395" x="0" y="0" width="46" height="46" filterUnits="userSpaceOnUse" color-interpolation-filters="sRGB">
<feFlood flood-opacity="0" result="BackgroundImageFix"/>
<feColorMatrix in="SourceAlpha" type="matrix" values="0 0 0 0 0 0 0 0 0 0 0 0 0 0 0 0 0 0 127 0" result="hardAlpha"/>
<feOffset dy="2"/>
<feGaussianBlur stdDeviation="5"/>
<feComposite in2="hardAlpha" operator="out"/>
<feColorMatrix type="matrix" values="0 0 0 0 1 0 0 0 0 1 0 0 0 0 1 0 0 0 0.25 0"/>
<feBlend mode="normal" in2="BackgroundImageFix" result="effect1_dropShadow_145_395"/>
<feBlend mode="normal" in="SourceGraphic" in2="effect1_dropShadow_145_395" result="shape"/>
</filter>
</defs>
</svg>
