<svg width="45" height="45" viewBox="0 0 45 45" fill="none" xmlns="http://www.w3.org/2000/svg">
<g filter="url(#filter0_d_145_387)">
<path d="M16.1526 10.3C13.9561 10.3561 12.6466 10.5639 11.7405 11.3348C10.5 12.3902 10.5 14.0888 10.5 17.4861L10.5 25.2933C10.5 28.6906 10.5 30.3892 11.7405 31.4446C12.981 32.5 14.9775 32.5 18.9706 32.5L26.0294 32.5C30.0225 32.5 32.019 32.5 33.2595 31.4446C34.5 30.3892 34.5 28.6906 34.5 25.2933V17.4861C34.5 14.0888 34.5 12.3902 33.2595 11.3348C32.3534 10.5639 31.0438 10.3561 28.8474 10.3" stroke="white"/>
<path d="M16.1475 10.6C16.1475 9.4402 17.2536 8.5 18.618 8.5H26.3828C27.7472 8.5 28.8533 9.4402 28.8533 10.6C28.8533 11.7598 27.7472 12.7 26.3828 12.7H18.618C17.2536 12.7 16.1475 11.7598 16.1475 10.6Z" stroke="white" stroke-linejoin="round"/>
<path d="M24.623 19.3H29.5642" stroke="white" stroke-linecap="round"/>
<path d="M15.4463 20.5001C15.4463 20.5001 16.1522 20.5001 16.8581 21.7001C16.8581 21.7001 19.1003 18.7001 21.0933 18.1001" stroke="white" stroke-linecap="round" stroke-linejoin="round"/>
<path d="M24.623 26.5H29.5642" stroke="white" stroke-linecap="round"/>
<path d="M16.8584 26.5H18.2702" stroke="white" stroke-linecap="round" stroke-linejoin="round"/>
</g>
<defs>
<filter id="filter0_d_145_387" x="0" y="0" width="45" height="45" filterUnits="userSpaceOnUse" color-interpolation-filters="sRGB">
<feFlood flood-opacity="0" result="BackgroundImageFix"/>
<feColorMatrix in="SourceAlpha" type="matrix" values="0 0 0 0 0 0 0 0 0 0 0 0 0 0 0 0 0 0 127 0" result="hardAlpha"/>
<feOffset dy="2"/>
<feGaussianBlur stdDeviation="5"/>
<feComposite in2="hardAlpha" operator="out"/>
<feColorMatrix type="matrix" values="0 0 0 0 1 0 0 0 0 1 0 0 0 0 1 0 0 0 0.25 0"/>
<feBlend mode="normal" in2="BackgroundImageFix" result="effect1_dropShadow_145_387"/>
<feBlend mode="normal" in="SourceGraphic" in2="effect1_dropShadow_145_387" result="shape"/>
</filter>
</defs>
</svg>
