<svg width="20" height="20" viewBox="0 0 20 20" fill="none" xmlns="http://www.w3.org/2000/svg">
<rect x="0.5" y="0.5" width="19" height="19" rx="9.5" fill="#2A2A2A"/>
<rect x="0.5" y="0.5" width="19" height="19" rx="9.5" stroke="white"/>
<path d="M10 4C9.893 4 9.78609 4.01726 9.68359 4.05176L4.5127 5.77539C4.2062 5.87739 4 6.16333 4 6.48633V12.9453C4 13.2893 4.23436 13.5894 4.56836 13.6729L9.75781 14.9697C9.83731 14.9897 9.9185 15 10 15C10.0815 15 10.1627 14.9897 10.2422 14.9697L15.4316 13.6729C15.7656 13.5899 16 13.2898 16 12.9453V6.48633C16 6.16333 15.7938 5.87739 15.4873 5.77539L10.3164 4.05176C10.2139 4.01726 10.107 4 10 4ZM10 5L15 6.66602V7.93848L10.4004 6.55957C10.1379 6.48057 9.86211 6.48057 9.59961 6.55957L5 7.93848V6.66602L10 5ZM10 7.31641C10.0807 7.31641 10.162 7.32759 10.2412 7.35059L15 8.7793V12.75L10 14L5 12.75V8.7793L9.7627 7.35059C9.8397 7.32759 9.91931 7.31641 10 7.31641ZM9.61035 8.00293C9.58984 7.99871 9.56777 7.99876 9.5459 8.00488L7.87988 8.45898C7.82138 8.47598 7.7793 8.53027 7.7793 8.59277V8.88379C7.7793 8.97579 7.8666 9.03858 7.9541 9.01758L9.62109 8.56348C9.67959 8.54698 9.7207 8.48828 9.7207 8.42578V8.13867C9.7207 8.07005 9.67188 8.01559 9.61035 8.00293ZM10.3906 8.00293C10.3291 8.01552 10.2793 8.07005 10.2793 8.13867V8.42676C10.2793 8.49326 10.3214 8.54795 10.3799 8.56445L12.0459 9.01758C12.1334 9.04258 12.2207 8.97627 12.2207 8.88477V8.59277C12.2207 8.53027 12.1791 8.47646 12.1211 8.45996L10.4541 8.00586C10.4322 7.99961 10.4111 7.99873 10.3906 8.00293ZM7.11035 8.68555C7.08984 8.68135 7.06777 8.68223 7.0459 8.68848L5.6582 9.06738C5.5957 9.08438 5.55469 9.13867 5.55469 9.20117V9.48828C5.55469 9.58028 5.64199 9.64707 5.72949 9.62207L7.12109 9.24316C7.17959 9.22616 7.2207 9.17188 7.2207 9.10938V8.82227C7.2207 8.75364 7.17188 8.69813 7.11035 8.68555ZM12.8906 8.68555C12.8291 8.69813 12.7793 8.75364 12.7793 8.82227V9.10938C12.7793 9.17188 12.8214 9.22666 12.8799 9.24316L14.2715 9.62207C14.359 9.64707 14.4463 9.57978 14.4463 9.48828V9.20117C14.4463 9.13867 14.4038 9.08438 14.3418 9.06738L12.9541 8.68848C12.9322 8.68223 12.9111 8.68135 12.8906 8.68555Z" fill="white" stroke="white" stroke-width="0.1"/>
</svg>
